<?xml version="1.0" encoding="UTF-8"?>
<svg version="1.1" xmlns="http://www.w3.org/2000/svg" width="48" height="48">
<path d="M0 0 C4.27596251 2.18855716 6.75841916 5.06371331 8.87890625 9.3046875 C9.19140625 12.6171875 9.19140625 12.6171875 8.87890625 15.3046875 C6.97040677 17.21318698 3.56411851 16.43528383 1.03515625 16.4375 C0.35086548 16.43845673 -0.33342529 16.43941345 -1.03845215 16.44039917 C-2.48771252 16.4410808 -3.93697593 16.43922773 -5.38623047 16.43505859 C-7.61172303 16.42971002 -9.83701376 16.4350041 -12.0625 16.44140625 C-13.46744836 16.44074547 -14.8723966 16.4394643 -16.27734375 16.4375 C-17.56447266 16.43637207 -18.85160156 16.43524414 -20.17773438 16.43408203 C-23.12109375 16.3046875 -23.12109375 16.3046875 -24.12109375 15.3046875 C-24.55554969 11.56836641 -24.25383176 9.57016351 -22.55859375 6.1796875 C-16.59077031 -0.85928374 -8.87112804 -2.90803092 0 0 Z M-20.05859375 8.3046875 C-21.53503527 10.54536901 -21.53503527 10.54536901 -20.12109375 14.3046875 C-11.87109375 14.3046875 -3.62109375 14.3046875 4.87890625 14.3046875 C5.20890625 12.9846875 5.53890625 11.6646875 5.87890625 10.3046875 C3.22646557 6.51548653 1.21824617 4.05012032 -3.12109375 2.3046875 C-10.40385994 1.1659277 -14.90449873 2.98433135 -20.05859375 8.3046875 Z " fill="#000000" transform="translate(24.12109375,25.6953125)"/>
<path d="M0 0 C2.4375 1.5 2.4375 1.5 4 4 C4.60385912 6.70446305 4.81448364 9.21725459 5 12 C1.53767506 14.30821663 0.08201684 14.27000989 -4 14.25 C-5.051875 14.25515625 -6.10375 14.2603125 -7.1875 14.265625 C-10 14 -10 14 -13 12 C-12.52238806 4.8358209 -12.52238806 4.8358209 -10.4375 1.5 C-6.94629869 -0.64843158 -3.99273389 -0.78706869 0 0 Z M-7 3 C-8.485 6.465 -8.485 6.465 -10 10 C-8.96593327 11.25949049 -8.96593327 11.25949049 -6.71484375 11.09765625 C-5.79832031 11.08605469 -4.88179687 11.07445312 -3.9375 11.0625 C-3.01839844 11.05347656 -2.09929688 11.04445313 -1.15234375 11.03515625 C-0.44207031 11.02355469 0.26820312 11.01195312 1 11 C1.33 10.34 1.66 9.68 2 9 C1.06553465 6.96855359 0.06775224 4.96466413 -1 3 C-2.98 3 -4.96 3 -7 3 Z " fill="#000000" transform="translate(38,12)"/>
<path d="M0 0 C2.4375 1.4375 2.4375 1.4375 4 4 C4.77201236 8.33759522 4.75587974 11.76035723 2.4375 15.5625 C-0.95518126 17.56331202 -3.12714161 17.55326548 -7 17 C-9.4375 15.5625 -9.4375 15.5625 -11 13 C-11.77201236 8.66240478 -11.75587974 5.23964277 -9.4375 1.4375 C-6.04481874 -0.56331202 -3.87285839 -0.55326548 0 0 Z M-8 5 C-8.33333333 8.5 -8.33333333 8.5 -8 12 C-6.17296773 14.2491908 -6.17296773 14.2491908 -3.5 14.25 C-0.82703227 14.2491908 -0.82703227 14.2491908 1 12 C1.33333333 8.5 1.33333333 8.5 1 5 C-0.82703227 2.7508092 -0.82703227 2.7508092 -3.5 2.75 C-6.17296773 2.7508092 -6.17296773 2.7508092 -8 5 Z " fill="#000000" transform="translate(20,6)"/>
<path d="M0 0 C4.71190102 -0.37695208 8.07370593 -0.46314703 12.375 1.6875 C15.04229544 4.03726027 16.63960697 5.7190521 18 9 C17.67 10.65 17.34 12.3 17 14 C12.71 14 8.42 14 4 14 C4 13.34 4 12.68 4 12 C7.3 11.67 10.6 11.34 14 11 C12.19587357 7.73539027 11.16605307 6.11070205 8 4 C5.67612053 3.60612212 3.34206251 3.26513915 1 3 C0.67 2.01 0.34 1.02 0 0 Z " fill="#000000" transform="translate(30,28)"/>
</svg>
